<svg width="390" height="60" viewBox="0 0 390 60" fill="none" xmlns="http://www.w3.org/2000/svg">
<path d="M60 30C60 13.4315 46.5685 0 30 0C13.4315 0 0 13.4315 0 30C0 46.5685 13.4315 60 30 60C46.5685 60 60 46.5685 60 30Z" fill="#06D6A0"/>
<path fill-rule="evenodd" clip-rule="evenodd" d="M29.9974 12C28.4617 11.9969 26.9405 12.2901 25.5211 12.8626C24.1017 13.4352 22.8122 14.2758 21.7266 15.3363C21.6028 15.4537 21.5043 15.594 21.4366 15.749C21.369 15.904 21.3337 16.0706 21.3327 16.2391C21.3317 16.4076 21.3651 16.5746 21.4309 16.7303C21.4967 16.8861 21.5936 17.0275 21.716 17.1463C21.8383 17.2651 21.9837 17.3589 22.1436 17.4223C22.3035 17.4856 22.4747 17.5173 22.6473 17.5154C22.8198 17.5134 22.9903 17.478 23.1487 17.4111C23.307 17.3442 23.4502 17.2471 23.5698 17.1257C24.4132 16.2986 25.4157 15.6424 26.5196 15.1946C27.6235 14.7468 28.8072 14.5163 30.0026 14.5163C31.198 14.5163 32.3817 14.7468 33.4856 15.1946C34.5895 15.6424 35.592 16.2986 36.4354 17.1257C36.555 17.2471 36.6982 17.3442 36.8565 17.4111C37.0149 17.478 37.1854 17.5134 37.3579 17.5154C37.5305 17.5173 37.7017 17.4856 37.8616 17.4223C38.0215 17.3589 38.1669 17.2651 38.2892 17.1463C38.4116 17.0275 38.5085 16.8861 38.5743 16.7303C38.6401 16.5746 38.6735 16.4076 38.6725 16.2391C38.6715 16.0706 38.6362 15.904 38.5686 15.749C38.5009 15.594 38.4024 15.4537 38.2786 15.3363C37.1911 14.2758 35.9 13.4352 34.4792 12.8627C33.0583 12.2902 31.5345 11.997 29.9974 12ZM29.9974 17.0685C29.1458 17.0672 28.3023 17.2304 27.5155 17.5486C26.7287 17.8668 26.0141 18.3337 25.4129 18.9226C25.2885 19.0393 25.1891 19.1791 25.1206 19.3337C25.052 19.4884 25.0157 19.6548 25.0137 19.8232C25.0118 19.9917 25.0442 20.1589 25.1091 20.315C25.174 20.4711 25.2701 20.613 25.3918 20.7325C25.5135 20.852 25.6583 20.9466 25.8178 21.0108C25.9773 21.0751 26.1484 21.1077 26.321 21.1067C26.4935 21.1057 26.6642 21.0712 26.8229 21.0052C26.9817 20.9392 27.1254 20.8429 27.2457 20.7221C27.6067 20.3663 28.0363 20.0839 28.5097 19.8912C28.9831 19.6985 29.491 19.5993 30.0039 19.5993C30.5168 19.5993 31.0247 19.6985 31.4981 19.8912C31.9715 20.0839 32.4011 20.3663 32.7621 20.7221C32.8824 20.8429 33.0261 20.9392 33.1849 21.0052C33.3436 21.0712 33.5143 21.1057 33.6868 21.1067C33.8594 21.1077 34.0305 21.0751 34.19 21.0108C34.3495 20.9466 34.4943 20.852 34.616 20.7325C34.7377 20.613 34.8338 20.4711 34.8987 20.315C34.9636 20.1589 34.996 19.9917 34.9941 19.8232C34.9921 19.6548 34.9558 19.4884 34.8872 19.3337C34.8187 19.1791 34.7193 19.0393 34.5949 18.9226C33.9911 18.3337 33.2742 17.8669 32.4852 17.549C31.6963 17.231 30.8509 17.0682 29.9974 17.0698V17.0685ZM11.805 19.6168C11.4603 19.6168 11.1297 19.7505 10.8859 19.9885C10.6421 20.2265 10.5052 20.5492 10.5052 20.8858C10.5052 21.2224 10.6421 21.5452 10.8859 21.7831C11.1297 22.0211 11.4603 22.1548 11.805 22.1548H13.0997V24.934C11.5971 25.467 10.5 26.8693 10.5 28.5076V33.5736C10.5068 34.5833 10.9207 35.5497 11.6519 36.2637C12.3832 36.9776 13.3731 37.3817 14.4073 37.3883C16.5455 37.3883 18.3016 35.6612 18.3016 33.5736V32.3097H20.9012V33.5736C20.9012 35.3223 22.149 36.8033 23.8102 37.2411C22.8939 38.0691 22.1625 39.0729 21.6619 40.1896C21.1614 41.3064 20.9024 42.512 20.9012 43.731C20.9012 44.0675 21.0382 44.3903 21.2819 44.6283C21.5257 44.8663 21.8563 45 22.201 45C22.5458 45 22.8764 44.8663 23.1202 44.6283C23.3639 44.3903 23.5009 44.0675 23.5009 43.731C23.4981 42.8973 23.6643 42.0713 23.9898 41.3006C24.3153 40.5298 24.7937 39.8296 25.3975 39.2401C26.0013 38.6506 26.7186 38.1835 27.508 37.8657C28.2975 37.5479 29.1435 37.3856 29.9974 37.3883C30.8519 37.3853 31.6986 37.5472 32.4887 37.8648C33.2789 38.1824 33.997 38.6493 34.6017 39.2387C35.2064 39.8281 35.6858 40.5285 36.0123 41.2994C36.3388 42.0704 36.5061 42.8967 36.5043 43.731C36.5043 44.0675 36.6413 44.3903 36.885 44.6283C37.1288 44.8663 37.4594 45 37.8042 45C38.1489 45 38.4795 44.8663 38.7233 44.6283C38.967 44.3903 39.104 44.0675 39.104 43.731C39.1024 42.5124 38.843 41.3072 38.3419 40.1911C37.8409 39.075 37.1091 38.072 36.1924 37.2449C37.8562 36.8071 39.104 35.3249 39.104 33.5736V32.3097H41.7036V33.5736C41.7036 35.6612 43.4623 37.3883 45.6005 37.3883C47.7387 37.3883 49.4948 35.6612 49.4948 33.5736V28.5076C49.4948 26.8693 48.4055 25.4658 46.9055 24.9328V22.1548H48.2002C48.5449 22.1548 48.8755 22.0211 49.1193 21.7831C49.3631 21.5452 49.5 21.2224 49.5 20.8858C49.5 20.5492 49.3631 20.2265 49.1193 19.9885C48.8755 19.7505 48.5449 19.6168 48.2002 19.6168H42.9983C42.6535 19.6168 42.3229 19.7505 42.0792 19.9885C41.8354 20.2265 41.6984 20.5492 41.6984 20.8858C41.6984 21.2224 41.8354 21.5452 42.0792 21.7831C42.3229 22.0211 42.6535 22.1548 42.9983 22.1548H44.3059V24.9289C42.7994 25.4581 41.7036 26.8642 41.7036 28.5076V29.7716H39.104V28.5076C39.0978 27.4984 38.6845 26.5323 37.9535 25.8186C37.2226 25.105 36.233 24.7014 35.1993 24.6954H24.8085C23.7746 24.7014 22.7847 25.1049 22.0533 25.8185C21.322 26.532 20.908 27.4982 20.9012 28.5076V29.7716H18.3016V28.5076C18.3016 26.8655 17.2071 25.4581 15.7019 24.9289V22.1548H17.0069C17.3517 22.1548 17.6823 22.0211 17.926 21.7831C18.1698 21.5452 18.3068 21.2224 18.3068 20.8858C18.3068 20.5492 18.1698 20.2265 17.926 19.9885C17.6823 19.7505 17.3517 19.6168 17.0069 19.6168H11.805ZM27.4029 29.7716C27.7477 29.7716 28.0783 29.9053 28.3221 30.1433C28.5658 30.3813 28.7028 30.7041 28.7028 31.0406C28.7028 31.3772 28.5658 31.7 28.3221 31.938C28.0783 32.176 27.7477 32.3097 27.4029 32.3097C27.0582 32.3097 26.7276 32.176 26.4838 31.938C26.2401 31.7 26.1031 31.3772 26.1031 31.0406C26.1031 30.7041 26.2401 30.3813 26.4838 30.1433C26.7276 29.9053 27.0582 29.7716 27.4029 29.7716ZM32.6023 29.7716C32.947 29.7716 33.2776 29.9053 33.5214 30.1433C33.7651 30.3813 33.9021 30.7041 33.9021 31.0406C33.9021 31.3772 33.7651 31.7 33.5214 31.938C33.2776 32.176 32.947 32.3097 32.6023 32.3097C32.2575 32.3097 31.9269 32.176 31.6831 31.938C31.4394 31.7 31.3024 31.3772 31.3024 31.0406C31.3024 30.7041 31.4394 30.3813 31.6831 30.1433C31.9269 29.9053 32.2575 29.7716 32.6023 29.7716Z" fill="#0A1519"/>
<path d="M78.56 20.824H83.552V43H78.56V20.824ZM81.024 18.68C80.3413 18.68 79.744 18.456 79.232 18.008C78.7413 17.56 78.496 16.952 78.496 16.184C78.496 15.416 78.7413 14.808 79.232 14.36C79.744 13.912 80.3413 13.688 81.024 13.688C81.7067 13.688 82.2933 13.912 82.784 14.36C83.296 14.808 83.552 15.416 83.552 16.184C83.552 16.952 83.296 17.56 82.784 18.008C82.2933 18.456 81.7067 18.68 81.024 18.68ZM102.061 20.824H107.053V43H102.061V33.592H93.677V43H88.685V20.824H93.677V29.304H102.061V20.824ZM127.033 43C126.798 42.232 126.532 41.4427 126.233 40.632C125.956 39.8213 125.678 39.0107 125.401 38.2H116.761C116.484 39.0107 116.196 39.8213 115.897 40.632C115.62 41.4427 115.364 42.232 115.129 43H109.945C110.777 40.6107 111.566 38.4027 112.313 36.376C113.06 34.3493 113.785 32.44 114.489 30.648C115.214 28.856 115.918 27.16 116.601 25.56C117.305 23.9387 118.03 22.36 118.777 20.824H123.545C124.27 22.36 124.985 23.9387 125.689 25.56C126.393 27.16 127.097 28.856 127.801 30.648C128.526 32.44 129.262 34.3493 130.009 36.376C130.756 38.4027 131.545 40.6107 132.377 43H127.033ZM121.049 25.848C120.942 26.168 120.782 26.6053 120.569 27.16C120.356 27.7147 120.11 28.3547 119.833 29.08C119.556 29.8053 119.246 30.6053 118.905 31.48C118.585 32.3547 118.254 33.272 117.913 34.232H124.217C123.876 33.272 123.545 32.3547 123.225 31.48C122.905 30.6053 122.596 29.8053 122.297 29.08C122.02 28.3547 121.774 27.7147 121.561 27.16C121.348 26.6053 121.177 26.168 121.049 25.848ZM151.063 29.944C151.959 28.4293 152.812 26.9147 153.623 25.4C154.434 23.8853 155.18 22.36 155.863 20.824H161.367C160.151 23.2133 158.892 25.528 157.591 27.768C156.29 30.008 154.914 32.2587 153.463 34.52V43H148.471V34.584C147.02 32.3227 145.634 30.0613 144.311 27.8C143.01 25.5387 141.751 23.2133 140.535 20.824H146.327C147.01 22.36 147.746 23.8853 148.535 25.4C149.324 26.9147 150.167 28.4293 151.063 29.944ZM176.703 34.552C176.703 35.8747 176.511 37.0907 176.127 38.2C175.743 39.288 175.188 40.2267 174.463 41.016C173.737 41.784 172.863 42.3813 171.839 42.808C170.836 43.2347 169.705 43.448 168.447 43.448C167.209 43.448 166.079 43.2347 165.055 42.808C164.052 42.3813 163.188 41.784 162.463 41.016C161.737 40.2267 161.172 39.288 160.767 38.2C160.361 37.0907 160.159 35.8747 160.159 34.552C160.159 33.2293 160.361 32.024 160.767 30.936C161.193 29.848 161.769 28.92 162.495 28.152C163.241 27.384 164.116 26.7867 165.119 26.36C166.143 25.9333 167.252 25.72 168.447 25.72C169.663 25.72 170.772 25.9333 171.775 26.36C172.799 26.7867 173.673 27.384 174.399 28.152C175.124 28.92 175.689 29.848 176.095 30.936C176.5 32.024 176.703 33.2293 176.703 34.552ZM171.839 34.552C171.839 33.08 171.54 31.928 170.943 31.096C170.367 30.2427 169.535 29.816 168.447 29.816C167.359 29.816 166.516 30.2427 165.919 31.096C165.321 31.928 165.023 33.08 165.023 34.552C165.023 36.024 165.321 37.1973 165.919 38.072C166.516 38.9253 167.359 39.352 168.447 39.352C169.535 39.352 170.367 38.9253 170.943 38.072C171.54 37.1973 171.839 36.024 171.839 34.552ZM164.863 23.736C164.201 23.736 163.625 23.5227 163.135 23.096C162.644 22.648 162.399 22.0507 162.399 21.304C162.399 20.5573 162.644 19.9707 163.135 19.544C163.625 19.096 164.201 18.872 164.863 18.872C165.524 18.872 166.1 19.096 166.591 19.544C167.081 19.9707 167.327 20.5573 167.327 21.304C167.327 22.0507 167.081 22.648 166.591 23.096C166.1 23.5227 165.524 23.736 164.863 23.736ZM171.999 23.736C171.337 23.736 170.761 23.5227 170.271 23.096C169.78 22.648 169.535 22.0507 169.535 21.304C169.535 20.5573 169.78 19.9707 170.271 19.544C170.761 19.096 171.337 18.872 171.999 18.872C172.66 18.872 173.236 19.096 173.727 19.544C174.217 19.9707 174.463 20.5573 174.463 21.304C174.463 22.0507 174.217 22.648 173.727 23.096C173.236 23.5227 172.66 23.736 171.999 23.736ZM180.396 26.744C181.207 26.5093 182.252 26.296 183.532 26.104C184.812 25.8907 186.156 25.784 187.564 25.784C188.994 25.784 190.178 25.976 191.116 26.36C192.076 26.7227 192.834 27.2453 193.388 27.928C193.943 28.6107 194.338 29.4213 194.572 30.36C194.807 31.2987 194.924 32.344 194.924 33.496V43H190.156V34.072C190.156 32.536 189.954 31.448 189.548 30.808C189.143 30.168 188.386 29.848 187.276 29.848C186.935 29.848 186.572 29.8693 186.188 29.912C185.804 29.9333 185.463 29.9653 185.164 30.008V43H180.396V26.744ZM198.44 34.712C198.44 33.2187 198.664 31.9173 199.112 30.808C199.581 29.6773 200.189 28.7387 200.936 27.992C201.683 27.2453 202.536 26.68 203.496 26.296C204.477 25.912 205.48 25.72 206.504 25.72C208.893 25.72 210.781 26.456 212.168 27.928C213.555 29.3787 214.248 31.5227 214.248 34.36C214.248 34.6373 214.237 34.9467 214.216 35.288C214.195 35.608 214.173 35.896 214.152 36.152H203.336C203.443 37.1333 203.901 37.912 204.712 38.488C205.523 39.064 206.611 39.352 207.976 39.352C208.851 39.352 209.704 39.2773 210.536 39.128C211.389 38.9573 212.083 38.7547 212.616 38.52L213.256 42.392C213 42.52 212.659 42.648 212.232 42.776C211.805 42.904 211.325 43.0107 210.792 43.096C210.28 43.2027 209.725 43.288 209.128 43.352C208.531 43.416 207.933 43.448 207.336 43.448C205.821 43.448 204.499 43.224 203.368 42.776C202.259 42.328 201.331 41.72 200.584 40.952C199.859 40.1627 199.315 39.2347 198.952 38.168C198.611 37.1013 198.44 35.9493 198.44 34.712ZM209.64 32.888C209.619 32.4827 209.544 32.088 209.416 31.704C209.309 31.32 209.128 30.9787 208.872 30.68C208.637 30.3813 208.328 30.136 207.944 29.944C207.581 29.752 207.123 29.656 206.568 29.656C206.035 29.656 205.576 29.752 205.192 29.944C204.808 30.1147 204.488 30.3493 204.232 30.648C203.976 30.9467 203.773 31.2987 203.624 31.704C203.496 32.088 203.4 32.4827 203.336 32.888H209.64ZM217.768 21.976L222.536 21.208V26.168H228.264V30.136H222.536V36.056C222.536 37.0587 222.706 37.8587 223.048 38.456C223.41 39.0533 224.125 39.352 225.192 39.352C225.704 39.352 226.226 39.3093 226.76 39.224C227.314 39.1173 227.816 38.9787 228.264 38.808L228.936 42.52C228.36 42.7547 227.72 42.9573 227.016 43.128C226.312 43.2987 225.448 43.384 224.424 43.384C223.122 43.384 222.045 43.2133 221.192 42.872C220.338 42.5093 219.656 42.0187 219.144 41.4C218.632 40.76 218.269 39.992 218.056 39.096C217.864 38.2 217.768 37.208 217.768 36.12V21.976ZM236.914 43H232.146V26.168H236.914V43ZM237.362 21.304C237.362 22.1787 237.074 22.872 236.498 23.384C235.944 23.8747 235.282 24.12 234.514 24.12C233.746 24.12 233.074 23.8747 232.498 23.384C231.944 22.872 231.666 22.1787 231.666 21.304C231.666 20.4293 231.944 19.7467 232.498 19.256C233.074 18.744 233.746 18.488 234.514 18.488C235.282 18.488 235.944 18.744 236.498 19.256C237.074 19.7467 237.362 20.4293 237.362 21.304ZM250.644 34.072C250.644 32.536 250.442 31.448 250.036 30.808C249.652 30.168 248.98 29.848 248.02 29.848C247.722 29.848 247.412 29.8693 247.092 29.912C246.772 29.9333 246.463 29.9653 246.164 30.008V43H241.396V26.744C241.802 26.6373 242.271 26.5307 242.804 26.424C243.359 26.296 243.935 26.1893 244.532 26.104C245.151 25.9973 245.78 25.9227 246.42 25.88C247.06 25.816 247.69 25.784 248.308 25.784C249.524 25.784 250.506 25.944 251.252 26.264C252.02 26.5627 252.65 26.9253 253.14 27.352C253.823 26.8613 254.602 26.4773 255.476 26.2C256.372 25.9227 257.194 25.784 257.94 25.784C259.284 25.784 260.383 25.976 261.236 26.36C262.111 26.7227 262.804 27.2453 263.316 27.928C263.828 28.6107 264.18 29.4213 264.372 30.36C264.564 31.2987 264.66 32.344 264.66 33.496V43H259.892V34.072C259.892 32.536 259.69 31.448 259.284 30.808C258.9 30.168 258.228 29.848 257.268 29.848C257.012 29.848 256.65 29.912 256.18 30.04C255.732 30.168 255.359 30.328 255.06 30.52C255.21 31.0107 255.306 31.5333 255.348 32.088C255.391 32.6213 255.412 33.1973 255.412 33.816V43H250.644V34.072ZM283.046 39.192C283.75 39.192 284.326 39.1387 284.774 39.032C285.243 38.904 285.616 38.744 285.894 38.552C286.171 38.3387 286.363 38.0933 286.47 37.816C286.576 37.5387 286.63 37.2293 286.63 36.888C286.63 36.1627 286.288 35.5653 285.606 35.096C284.923 34.6053 283.75 34.0827 282.086 33.528C281.36 33.272 280.635 32.984 279.91 32.664C279.184 32.3227 278.534 31.9067 277.958 31.416C277.382 30.904 276.912 30.296 276.549 29.592C276.187 28.8667 276.006 27.992 276.006 26.968C276.006 25.944 276.198 25.0267 276.582 24.216C276.966 23.384 277.51 22.68 278.214 22.104C278.918 21.528 279.771 21.0907 280.774 20.792C281.776 20.472 282.907 20.312 284.166 20.312C285.659 20.312 286.95 20.472 288.038 20.792C289.126 21.112 290.022 21.464 290.726 21.848L289.286 25.784C288.667 25.464 287.974 25.1867 287.206 24.952C286.459 24.696 285.552 24.568 284.486 24.568C283.291 24.568 282.427 24.7387 281.894 25.08C281.382 25.4 281.126 25.9013 281.126 26.584C281.126 26.9893 281.222 27.3307 281.414 27.608C281.606 27.8853 281.872 28.1413 282.214 28.376C282.576 28.5893 282.982 28.792 283.43 28.984C283.899 29.1547 284.411 29.336 284.966 29.528C286.118 29.9547 287.12 30.3813 287.974 30.808C288.827 31.2133 289.531 31.6933 290.086 32.248C290.662 32.8027 291.088 33.4533 291.366 34.2C291.643 34.9467 291.782 35.8533 291.782 36.92C291.782 38.9893 291.056 40.6 289.606 41.752C288.155 42.8827 285.968 43.448 283.046 43.448C282.064 43.448 281.179 43.384 280.39 43.256C279.6 43.1493 278.896 43.0107 278.278 42.84C277.68 42.6693 277.158 42.488 276.71 42.296C276.283 42.104 275.92 41.9227 275.622 41.752L277.03 37.784C277.691 38.1467 278.502 38.4773 279.462 38.776C280.443 39.0533 281.638 39.192 283.046 39.192ZM300.071 43H295.303V26.168H300.071V43ZM300.519 21.304C300.519 22.1787 300.231 22.872 299.655 23.384C299.1 23.8747 298.439 24.12 297.671 24.12C296.903 24.12 296.231 23.8747 295.655 23.384C295.1 22.872 294.823 22.1787 294.823 21.304C294.823 20.4293 295.1 19.7467 295.655 19.256C296.231 18.744 296.903 18.488 297.671 18.488C298.439 18.488 299.1 18.744 299.655 19.256C300.231 19.7467 300.519 20.4293 300.519 21.304ZM309.385 39.576C310.259 39.576 310.878 39.4907 311.241 39.32C311.603 39.1493 311.785 38.8187 311.785 38.328C311.785 37.944 311.55 37.6133 311.081 37.336C310.611 37.0373 309.897 36.7067 308.937 36.344C308.19 36.0667 307.507 35.7787 306.889 35.48C306.291 35.1813 305.779 34.8293 305.353 34.424C304.926 33.9973 304.595 33.496 304.361 32.92C304.126 32.344 304.009 31.6507 304.009 30.84C304.009 29.2613 304.595 28.0133 305.769 27.096C306.942 26.1787 308.553 25.72 310.601 25.72C311.625 25.72 312.606 25.816 313.545 26.008C314.483 26.1787 315.23 26.3707 315.785 26.584L314.953 30.296C314.398 30.104 313.79 29.9333 313.129 29.784C312.489 29.6347 311.763 29.56 310.953 29.56C309.459 29.56 308.713 29.976 308.713 30.808C308.713 31 308.745 31.1707 308.809 31.32C308.873 31.4693 309.001 31.6187 309.193 31.768C309.385 31.896 309.641 32.0453 309.961 32.216C310.302 32.3653 310.729 32.536 311.241 32.728C312.286 33.112 313.15 33.496 313.833 33.88C314.515 34.2427 315.049 34.648 315.433 35.096C315.838 35.5227 316.115 36.0027 316.265 36.536C316.435 37.0693 316.521 37.688 316.521 38.392C316.521 40.056 315.891 41.3147 314.633 42.168C313.395 43.0213 311.635 43.448 309.353 43.448C307.859 43.448 306.611 43.32 305.609 43.064C304.627 42.808 303.945 42.5947 303.561 42.424L304.361 38.552C305.171 38.872 306.003 39.128 306.857 39.32C307.71 39.4907 308.553 39.576 309.385 39.576ZM319.924 21.976L324.692 21.208V26.168H330.42V30.136H324.692V36.056C324.692 37.0587 324.862 37.8587 325.204 38.456C325.566 39.0533 326.281 39.352 327.348 39.352C327.86 39.352 328.382 39.3093 328.916 39.224C329.47 39.1173 329.972 38.9787 330.42 38.808L331.092 42.52C330.516 42.7547 329.876 42.9573 329.172 43.128C328.468 43.2987 327.604 43.384 326.58 43.384C325.278 43.384 324.201 43.2133 323.348 42.872C322.494 42.5093 321.812 42.0187 321.3 41.4C320.788 40.76 320.425 39.992 320.212 39.096C320.02 38.2 319.924 37.208 319.924 36.12V21.976ZM332.878 34.712C332.878 33.2187 333.102 31.9173 333.549 30.808C334.019 29.6773 334.627 28.7387 335.374 27.992C336.12 27.2453 336.974 26.68 337.934 26.296C338.915 25.912 339.918 25.72 340.942 25.72C343.331 25.72 345.219 26.456 346.606 27.928C347.992 29.3787 348.686 31.5227 348.686 34.36C348.686 34.6373 348.675 34.9467 348.654 35.288C348.632 35.608 348.611 35.896 348.59 36.152H337.774C337.88 37.1333 338.339 37.912 339.15 38.488C339.96 39.064 341.048 39.352 342.414 39.352C343.288 39.352 344.142 39.2773 344.974 39.128C345.827 38.9573 346.52 38.7547 347.054 38.52L347.694 42.392C347.438 42.52 347.096 42.648 346.67 42.776C346.243 42.904 345.763 43.0107 345.23 43.096C344.718 43.2027 344.163 43.288 343.566 43.352C342.968 43.416 342.371 43.448 341.774 43.448C340.259 43.448 338.936 43.224 337.806 42.776C336.696 42.328 335.768 41.72 335.022 40.952C334.296 40.1627 333.752 39.2347 333.39 38.168C333.048 37.1013 332.878 35.9493 332.878 34.712ZM344.078 32.888C344.056 32.4827 343.982 32.088 343.854 31.704C343.747 31.32 343.566 30.9787 343.31 30.68C343.075 30.3813 342.766 30.136 342.382 29.944C342.019 29.752 341.56 29.656 341.006 29.656C340.472 29.656 340.014 29.752 339.63 29.944C339.246 30.1147 338.926 30.3493 338.67 30.648C338.414 30.9467 338.211 31.2987 338.062 31.704C337.934 32.088 337.838 32.4827 337.774 32.888H344.078ZM361.613 34.072C361.613 32.536 361.41 31.448 361.005 30.808C360.621 30.168 359.949 29.848 358.989 29.848C358.69 29.848 358.381 29.8693 358.061 29.912C357.741 29.9333 357.432 29.9653 357.133 30.008V43H352.365V26.744C352.77 26.6373 353.24 26.5307 353.773 26.424C354.328 26.296 354.904 26.1893 355.501 26.104C356.12 25.9973 356.749 25.9227 357.389 25.88C358.029 25.816 358.658 25.784 359.277 25.784C360.493 25.784 361.474 25.944 362.221 26.264C362.989 26.5627 363.618 26.9253 364.109 27.352C364.792 26.8613 365.57 26.4773 366.445 26.2C367.341 25.9227 368.162 25.784 368.909 25.784C370.253 25.784 371.352 25.976 372.205 26.36C373.08 26.7227 373.773 27.2453 374.285 27.928C374.797 28.6107 375.149 29.4213 375.341 30.36C375.533 31.2987 375.629 32.344 375.629 33.496V43H370.861V34.072C370.861 32.536 370.658 31.448 370.253 30.808C369.869 30.168 369.197 29.848 368.237 29.848C367.981 29.848 367.618 29.912 367.149 30.04C366.701 30.168 366.328 30.328 366.029 30.52C366.178 31.0107 366.274 31.5333 366.317 32.088C366.36 32.6213 366.381 33.1973 366.381 33.816V43H361.613V34.072ZM384.727 43H379.959V26.168H384.727V43ZM385.175 21.304C385.175 22.1787 384.887 22.872 384.311 23.384C383.756 23.8747 383.095 24.12 382.327 24.12C381.559 24.12 380.887 23.8747 380.311 23.384C379.756 22.872 379.479 22.1787 379.479 21.304C379.479 20.4293 379.756 19.7467 380.311 19.256C380.887 18.744 381.559 18.488 382.327 18.488C383.095 18.488 383.756 18.744 384.311 19.256C384.887 19.7467 385.175 20.4293 385.175 21.304Z" fill="white"/>
</svg>
